:version 1.10
:name ASF
:units
  mass 1
  length 1
  angle deg
:documentation
  ASF file generated by Kaydara
:root
  axis xyz
  order  tx ty tz rx ry rz
  position 0 0 0
  orientation 0 0 0
:bonedata
  begin
    id 1
    name RightUpLegDummy
    direction -0.65628 -0.754516 0.00165102
    length 4.76918
    axis 0 0 0 xyz
  end
  begin
    id 2
    name RightUpLeg
    direction -0.145584 -0.923362 0.355256
    length 17.9961
    axis -24.7611 -13.1006 1.78531 xyz
    dof rx ry rz
  end
  begin
    id 3
    name RightLeg
    direction 0.263379 0.172355 -0.949171
    length 13.3386
    axis 89.6202 -21.1929 12.3855 xyz
    dof rx ry rz
  end
  begin
    id 4
    name RightFoot
    direction 0.224283 -0.968777 -0.105675
    length 5.86697
    axis 56.995 -39.6905 17.3365 xyz
    dof rx ry rz
  end
  begin
    id 5
    name RightToes
    direction -0.0806345 -0.9037 0.420506
    length 4.75197
    axis 146.825 -39.7828 17.6019 xyz
    dof rx ry rz
  end
  begin
    id 6
    name SpineDummy
    direction -3.39852e-014 1 9.33296e-014
    length 8.13779
    axis 0 0 0 xyz
  end
  begin
    id 7
    name Spine
    direction -0.156609 0.733703 0.661176
    length 7.14978
    axis 41.2365 5.68757 17.0844 xyz
    dof rx ry rz
  end
  begin
    id 8
    name Spine1
    direction 0 0 0
    length 0
    axis 42.8809 47.8308 -3.36039 xyz
    dof rx ry rz
  end
  begin
    id 9
    name HEadDummy
    direction 0.546431 0.701947 0.456819
    length 3.55512
    axis 42.8809 47.8308 -3.36039 xyz
  end
  begin
    id 10
    name HEad
    direction 0.23444 0.828559 0.508457
    length 7.35827
    axis 51.1864 49.2662 27.4903 xyz
    dof rx ry rz
  end
  begin
    id 11
    name LeftShoulder1Dummy
    direction 0.431183 0.475873 -0.766568
    length 2.49352
    axis 42.8809 47.8308 -3.36039 xyz
  end
  begin
    id 12
    name LeftShoulder1
    direction 0.268187 -0.383402 -0.883786
    length 4.48604
    axis -119.517 0.106469 35.1736 xyz
    dof rx ry rz
  end
  begin
    id 13
    name LeftArm
    direction 0.380567 -0.703221 -0.600541
    length 10.1142
    axis -5.41825 36.2925 7.8293 xyz
    dof rx ry rz
  end
  begin
    id 14
    name LeftForeArm
    direction 0.541071 -0.732356 -0.413396
    length 9.39839
    axis 4.65387 33.7604 7.81644 xyz
    dof rx ry rz
  end
  begin
    id 15
    name LeftHand
    direction 0.847511 -0.389379 -0.360707
    length 3.66142
    axis 7.65593 21.1436 -24.6758 xyz
    dof rx ry rz
  end
  begin
    id 16
    name RightShoulderDummy
    direction -0.692546 0.541855 0.476208
    length 2.49352
    axis 42.8809 47.8308 -3.36039 xyz
  end
  begin
    id 17
    name RightShoulder
    direction -0.870808 -0.316653 0.376065
    length 4.48602
    axis 141.571 51.133 -100.254 xyz
    dof rx ry rz
  end
  begin
    id 18
    name RightArm
    direction 0.366897 -0.87275 0.322015
    length 10.1142
    axis 92.3258 71.2036 138.917 xyz
    dof rx ry rz
  end
  begin
    id 19
    name RightForeArm
    direction 0.702487 -0.694568 0.155197
    length 9.39835
    axis 153.863 41.5092 -176.604 xyz
    dof rx ry rz
  end
  begin
    id 20
    name RightHand
    direction 0.79502 -0.601276 0.0800636
    length 3.66142
    axis 154.247 4.59222 142.9 xyz
    dof rx ry rz
  end
  begin
    id 21
    name LeftUpLegDummy
    direction 0.65628 -0.754516 0.00165102
    length 4.76919
    axis 0 0 0 xyz
  end
  begin
    id 22
    name LeftUpLeg
    direction -0.1277 -0.689368 0.713067
    length 17.9961
    axis -48.3385 -17.8675 0.791927 xyz
    dof rx ry rz
  end
  begin
    id 23
    name LeftLeg
    direction 0.109849 -0.991246 -0.0732378
    length 13.3386
    axis -2.05791 -7.30784 1.72042 xyz
    dof rx ry rz
  end
  begin
    id 24
    name LeftFoot
    direction 0.0448355 -0.272614 0.961078
    length 5.86697
    axis -18.7733 -7.89606 10.2113 xyz
    dof rx ry rz
  end
  begin
    id 25
    name LeftToes
    direction -0.18506 0.293668 0.937823
    length 4.75197
    axis 71.2267 -7.89606 10.2113 xyz
    dof rx ry rz
  end
:hierarchy
  begin
    root RightUpLegDummy SpineDummy LeftUpLegDummy
    RightUpLegDummy RightUpLeg
    RightUpLeg RightLeg
    RightLeg RightFoot
    RightFoot RightToes
    SpineDummy Spine
    Spine Spine1
    Spine1 HEadDummy LeftShoulder1Dummy RightShoulderDummy
    HEadDummy HEad
    LeftShoulder1Dummy LeftShoulder1
    LeftShoulder1 LeftArm
    LeftArm LeftForeArm
    LeftForeArm LeftHand
    RightShoulderDummy RightShoulder
    RightShoulder RightArm
    RightArm RightForeArm
    RightForeArm RightHand
    LeftUpLegDummy LeftUpLeg
    LeftUpLeg LeftLeg
    LeftLeg LeftFoot
    LeftFoot LeftToes
  end

:SAMPLES-PER-SECOND 30
:FULLY-SPECIFIED
:DEGREES
64
root  -0.496475 38.3634 -27.0811 -7.66941 1.40717 4.49132
RightUpLeg  4.38807 21.9358 -1.10898
RightLeg  -96.7633 -11.8078 0.930285
RightFoot  29.5094 4.35986 -16.645
RightToes  -1.27222e-014 -6.36111e-015 6.36111e-015
Spine  -26.6991 -27.415 -17.9929
Spine1  0.767821 -19.285 66.7443
HEad  0.0953929 7.27491 -25.1538
LeftShoulder1  6.36111e-015 -1.33558e-015 6.49777e-015
LeftArm  42.865 -27.601 -36.7211
LeftForeArm  0.299087 -22.5055 -3.20908
LeftHand  0.219465 3.86395 -10.7877
RightShoulder  -4.77083e-015 -6.36111e-015 -3.18055e-015
RightArm  70.4566 -18.5306 -44.7007
RightForeArm  -28.3714 -8.12164 -11.1196
RightHand  -1.28711 7.77915 -1.18121
LeftUpLeg  59.3314 21.4575 19.3865
LeftLeg  -18.5304 -4.26661 -1.86484
LeftFoot  -1.47533 4.43497 -15.5949
LeftToes  9.54166e-015 4.2066e-011 -8.07781e-011
65
root  -0.856615 37.8576 -26.3784 -7.52445 -1.1283 4.07913
RightUpLeg  1.54681 23.8674 1.09945
RightLeg  -88.0888 -12.5566 1.30056
RightFoot  26.6424 4.95386 -17.0327
RightToes  -1.27222e-014 -6.36111e-015 6.36111e-015
Spine  -24.631 -26.2666 -18.3979
Spine1  2.28074 -18.7528 66.8931
HEad  -3.93868 8.22108 -27.6945
LeftShoulder1  6.36111e-015 -1.33558e-015 6.49777e-015
LeftArm  35.8347 -19.4967 -31.4996
LeftForeArm  2.38786 -23.5879 -4.327
LeftHand  1.53878 6.38478 -6.51916
RightShoulder  -4.77083e-015 -6.36111e-015 -3.18055e-015
RightArm  63.1484 -21.58 -43.55
RightForeArm  -31.8612 -16.0196 -6.7373
RightHand  -1.56494 9.23547 -1.10947
LeftUpLeg  55.9979 20.1102 17.3398
LeftLeg  -9.75435 0.242493 -1.45681
LeftFoot  -3.93274 5.45348 -20.7787
LeftToes  9.54166e-015 4.2066e-011 -8.07781e-011
66
root  -1.25298 37.451 -25.5572 -6.73367 -2.21747 3.20994
RightUpLeg  -0.687331 22.6043 2.32119
RightLeg  -82.4155 -13.7104 2.845
RightFoot  22.4305 4.35253 -15.5312
RightToes  -1.27222e-014 -6.36111e-015 6.36111e-015
Spine  -25.0908 -24.4239 -16.0084
Spine1  4.87129 -18.5807 65.2031
HEad  -6.41852 8.26801 -28.7659
LeftShoulder1  6.36111e-015 -1.33558e-015 6.49777e-015
LeftArm  35.7763 -14.7936 -32.7815
LeftForeArm  0.229661 -21.0324 -3.82411
LeftHand  1.71219 6.39347 -5.32649
RightShoulder  -4.77083e-015 -6.36111e-015 -3.18055e-015
RightArm  56.9499 -27.0749 -42.3057
RightForeArm  -37.5946 -19.5985 -4.21618
RightHand  -1.92845 11.2104 -1.4575
LeftUpLeg  50.5727 18.4124 16.6889
LeftLeg  1.56538 3.16061 0.511066
LeftFoot  -0.105299 6.59001 -22.0872
LeftToes  9.54166e-015 4.2066e-011 -8.07781e-011
67
root  -1.63602 37.0479 -24.693 -6.46434 -2.16874 1.52226
RightUpLeg  -1.2735 19.3995 3.66364
RightLeg  -78.5857 -14.6422 3.72473
RightFoot  20.567 3.47707 -13.8721
RightToes  -1.27222e-014 -6.36111e-015 6.36111e-015
Spine  -25.7105 -21.2264 -11.4736
Spine1  6.52219 -17.7209 63.3653
HEad  -7.11652 7.45467 -28.6448
LeftShoulder1  6.36111e-015 -1.33558e-015 6.49777e-015
LeftArm  39.9979 -12.1826 -38.4906
LeftForeArm  -3.64381 -18.7304 -1.96832
LeftHand  0.753742 4.37979 -7.603
RightShoulder  -4.77083e-015 -6.36111e-015 -3.18055e-015
RightArm  52.495 -32.5531 -38.9336
RightForeArm  -44.8754 -17.5834 -4.32195
RightHand  -2.28544 13.0409 -1.23819
LeftUpLeg  44.716 16.268 17.831
LeftLeg  13.4956 4.8945 3.32114
LeftFoot  9.90347 6.34472 -16.1484
LeftToes  9.54166e-015 4.2066e-011 -8.07781e-011
68
root  -2.03339 36.5569 -23.8027 -7.58009 -2.83876 -0.357381
RightUpLeg  -0.314957 16.3841 5.52331
RightLeg  -73.5227 -14.616 1.74194
RightFoot  18.7467 3.2558 -13.1441
RightToes  -1.27222e-014 -6.36111e-015 6.36111e-015
Spine  -24.9223 -17.6908 -7.98533
Spine1  7.4962 -15.9911 61.4408
HEad  -7.68309 6.14974 -28.6034
LeftShoulder1  6.36111e-015 -1.33558e-015 6.49777e-015
LeftArm  40.5035 -7.03764 -41.4339
LeftForeArm  -4.22025 -22.17 -0.700639
LeftHand  -0.255333 1.95694 -10.0797
RightShoulder  -4.77083e-015 -6.36111e-015 -3.18055e-015
RightArm  46.4593 -35.0949 -32.52
RightForeArm  -51.7724 -12.4665 -6.97479
RightHand  -2.45007 13.8818 -0.507486
LeftUpLeg  40.8566 14.4431 20.8124
LeftLeg  23.7633 5.38406 5.97393
LeftFoot  17.7317 4.80796 -10.2476
LeftToes  9.54166e-015 4.2066e-011 -8.07781e-011
69
root  -2.43527 36.2853 -22.8066 -9.28351 -4.25586 -1.61648
RightUpLeg  2.21218 14.6023 7.25644
RightLeg  -69.3991 -13.8517 -0.72405
RightFoot  15.2325 3.53288 -12.7968
RightToes  -1.27222e-014 -6.36111e-015 6.36111e-015
Spine  -24.3946 -15.021 -6.70931
Spine1  9.30535 -14.1827 58.9802
HEad  -8.62026 4.52207 -28.7508
LeftShoulder1  6.36111e-015 -1.33558e-015 6.49777e-015
LeftArm  38.0986 -0.155792 -42.0493
LeftForeArm  -2.6421 -28.288 0.00479563
LeftHand  -0.831461 0.284295 -11.1323
RightShoulder  -4.77083e-015 -6.36111e-015 -3.18055e-015
RightArm  37.4963 -33.7778 -24.3033
RightForeArm  -56.5314 -7.44313 -10.9321
RightHand  -2.4296 13.7584 0.0296779
LeftUpLeg  39.1136 13.1023 23.8247
LeftLeg  30.5207 4.0752 6.80933
LeftFoot  17.8499 4.23783 -9.02548
LeftToes  9.54166e-015 4.2066e-011 -8.07781e-011
70
root  -2.79012 36.361 -21.6776 -10.472 -4.25045 -1.96713
RightUpLeg  5.53036 13.2223 7.71899
RightLeg  -68.3705 -13.77 -1.02441
RightFoot  11.8746 3.74621 -12.3534
RightToes  -1.27222e-014 -6.36111e-015 6.36111e-015
Spine  -25.4306 -13.3196 -6.271
Spine1  11.3177 -12.8585 56.1409
HEad  -8.40142 2.19173 -27.8211
LeftShoulder1  6.36111e-015 -1.33558e-015 6.49777e-015
LeftArm  36.9814 4.98639 -43.7979
LeftForeArm  -1.2936 -32.1649 0.389553
LeftHand  -1.1102 -0.64612 -11.3396
RightShoulder  -4.77083e-015 -6.36111e-015 -3.18055e-015
RightArm  28.6742 -30.1681 -17.0702
RightForeArm  -57.935 -3.62501 -15.1566
RightHand  -2.26271 12.8433 -0.0760229
LeftUpLeg  37.4471 12.0498 24.2581
LeftLeg  33.0196 1.60605 5.37737
LeftFoot  13.557 4.20219 -9.84762
LeftToes  9.54166e-015 4.2066e-011 -8.07781e-011
71
root  -3.05618 36.721 -20.4694 -10.8219 -2.03734 -1.83386
RightUpLeg  9.25146 11.7531 7.05281
RightLeg  -70.7603 -14.3373 0.455942
RightFoot  10.9779 3.76879 -12.166
RightToes  -1.27222e-014 -6.36111e-015 6.36111e-015
Spine  -27.2027 -11.7619 -5.30852
Spine1  11.4905 -11.6497 52.8074
HEad  -5.95571 -1.55729 -25.2007
LeftShoulder1  6.36111e-015 -1.33558e-015 6.49777e-015
LeftArm  38.1885 7.30029 -46.8032
LeftForeArm  -0.565035 -32.8975 0.308845
LeftHand  -1.34885 -1.38959 -11.7812
RightShoulder  -4.77083e-015 -6.36111e-015 -3.18055e-015
RightArm  23.0963 -26.4568 -12.9145
RightForeArm  -55.8434 -0.601012 -19.2101
RightHand  -1.95268 11.2013 -0.539104
LeftUpLeg  34.7067 11.3393 22.2118
LeftLeg  31.4292 0.120284 3.87543
LeftFoot  10.4244 3.82252 -9.65664
LeftToes  9.54166e-015 4.2066e-011 -8.07781e-011
72
root  -3.25955 37.3038 -19.2363 -10.4624 0.698901 -1.49354
RightUpLeg  13.3103 10.8333 6.37689
RightLeg  -75.6759 -14.4622 2.04077
RightFoot  11.8826 3.67955 -12.2353
RightToes  -1.27222e-014 -6.36111e-015 6.36111e-015
Spine  -28.6461 -9.86062 -4.26952
Spine1  9.68644 -10.23 48.0729
HEad  -2.26504 -6.99385 -21.8805
LeftShoulder1  6.36111e-015 -1.33558e-015 6.49777e-015
LeftArm  40.327 8.87904 -48.5038
LeftForeArm  -0.456962 -32.579 0.209435
LeftHand  -1.65054 -2.28367 -12.7039
RightShoulder  -4.77083e-015 -6.36111e-015 -3.18055e-015
RightArm  21.1798 -23.3286 -12.0542
RightForeArm  -51.5938 2.10353 -22.5266
RightHand  -1.48808 8.79487 -0.989359
LeftUpLeg  31.759 11.4768 20.1348
LeftLeg  26.1887 0.383449 3.30547
LeftFoot  9.32139 3.33331 -8.66175
LeftToes  9.54166e-015 4.2066e-011 -8.07781e-011
73
root  -3.40328 37.9562 -18.0264 -9.58669 2.86889 -1.30894
RightUpLeg  17.1123 10.0586 6.07122
RightLeg  -81.521 -14.0264 3.23431
RightFoot  13.1632 3.51157 -12.2592
RightToes  -1.27222e-014 -6.36111e-015 6.36111e-015
Spine  -29.884 -7.42993 -3.25764
Spine1  7.68952 -8.57433 42.4286
HEad  0.987982 -13.2939 -18.9963
LeftShoulder1  6.36111e-015 -1.33558e-015 6.49777e-015
LeftArm  41.7813 11.3324 -46.2871
LeftForeArm  -0.771696 -33.6239 0.529014
LeftHand  -1.95889 -3.25903 -13.6412
RightShoulder  -4.77083e-015 -6.36111e-015 -3.18055e-015
RightArm  21.6623 -19.9925 -12.8923
RightForeArm  -46.3936 4.62047 -24.7267
RightHand  -0.884025 5.79603 -1.58677
LeftUpLeg  29.6849 12.1574 19.3386
LeftLeg  17.7511 0.280615 2.09967
LeftFoot  8.51424 3.32012 -8.80322
LeftToes  9.54166e-015 4.2066e-011 -8.07781e-011
74
root  -3.49126 38.5042 -16.8307 -8.59243 5.18179 -1.48351
RightUpLeg  20.3637 7.99694 5.32902
RightLeg  -87.0097 -13.3045 3.88919
RightFoot  15.0295 3.59268 -12.8503
RightToes  -1.27222e-014 -6.36111e-015 6.36111e-015
Spine  -31.2444 -4.85896 -2.11221
Spine1  6.447 -6.99138 37.4266
HEad  2.78517 -19.3347 -16.5823
LeftShoulder1  6.36111e-015 -1.33558e-015 6.49777e-015
LeftArm  42.6185 13.696 -40.9089
LeftForeArm  -1.94523 -35.7917 1.43672
LeftHand  -2.24126 -4.21839 -14.4466
RightShoulder  -4.77083e-015 -6.36111e-015 -3.18055e-015
RightArm  23.2669 -15.6958 -13.5365
RightForeArm  -40.3118 6.75631 -25.4154
RightHand  -0.295188 3.16242 -2.46608
LeftUpLeg  28.7013 12.4168 18.8703
LeftLeg  6.79295 -1.93899 0.133792
LeftFoot  8.38886 3.6623 -9.73445
LeftToes  9.54166e-015 4.2066e-011 -8.07781e-011
75
root  -3.58056 38.941 -15.6592 -7.7707 8.04521 -1.67713
RightUpLeg  23.7714 5.15705 3.90356
RightLeg  -92.5036 -12.1022 3.51726
RightFoot  17.6286 4.0145 -14.1153
RightToes  -1.27222e-014 -6.36111e-015 6.36111e-015
Spine  -32.4947 -3.13363 -1.57802
Spine1  6.01849 -5.93235 33.2405
HEad  2.84173 -24.7358 -14.3687
LeftShoulder1  6.36111e-015 -1.33558e-015 6.49777e-015
LeftArm  42.9189 14.627 -35.0096
LeftForeArm  -4.20543 -37.2519 2.64935
LeftHand  -2.50877 -5.1424 -15.5111
RightShoulder  -4.77083e-015 -6.36111e-015 -3.18055e-015
RightArm  25.7506 -10.431 -13.4644
RightForeArm  -33.8474 8.01945 -24.3709
RightHand  -0.0327347 2.1871 -3.10571
LeftUpLeg  28.6041 12.1963 17.8142
LeftLeg  -6.06443 -4.78659 -1.09505
LeftFoot  8.63767 3.72625 -9.84114
LeftToes  9.54166e-015 4.2066e-011 -8.07781e-011
76
root  -3.671 39.2058 -14.5361 -6.94293 10.6259 -1.87116
RightUpLeg  27.7413 5.53905 4.40431
RightLeg  -98.4227 -9.6816 5.08365
RightFoot  19.0971 4.0691 -14.4943
RightToes  -1.27222e-014 -6.36111e-015 6.36111e-015
Spine  -33.5623 -1.93008 -1.64214
Spine1  6.43439 -4.98911 29.247
HEad  1.73518 -29.6397 -12.6581
LeftShoulder1  6.36111e-015 -1.33558e-015 6.49777e-015
LeftArm  42.3564 14.1415 -29.9571
LeftForeArm  -7.31244 -37.6419 3.89459
LeftHand  -2.69445 -5.7908 -16.6153
RightShoulder  -4.77083e-015 -6.36111e-015 -3.18055e-015
RightArm  29.4452 -5.01377 -13.3571
RightForeArm  -29.254 8.16721 -22.7085
RightHand  -0.343036 3.28441 -2.22896
LeftUpLeg  29.1387 12.4091 17.2657
LeftLeg  -19.9206 -7.62653 -1.224
LeftFoot  7.92782 3.59072 -9.65805
LeftToes  9.54166e-015 4.2066e-011 -8.07781e-011
